<svg aria-hidden="true" style="position: absolute; width: 0; height: 0; overflow: hidden;" version="1.1" xmlns="http://www.w3.org/2000/svg" xmlns:xlink="http://www.w3.org/1999/xlink">
<defs>
<symbol id="icon-image" viewBox="0 0 32 32">
<path fill="#3470ff" style="fill: var(--color1, #3470ff)" d="M8 0h16c4.418 0 8 3.582 8 8v16c0 4.418-3.582 8-8 8h-16c-4.418 0-8-3.582-8-8v-16c0-4.418 3.582-8 8-8z"></path>
<path fill="#fbfbfb" style="fill: var(--color2, #fbfbfb)" d="M16 9.6c0.848 0 1.662 0.337 2.262 0.937s0.938 1.414 0.938 2.263-0.338 1.663-0.938 2.263c-0.6 0.6-1.414 0.937-2.262 0.937s-1.662-0.337-2.262-0.937c-0.6-0.6-0.938-1.414-0.938-2.263s0.338-1.663 0.938-2.263c0.6-0.6 1.414-0.937 2.262-0.937zM16 17.6c3.536 0 6.4 1.432 6.4 3.2v1.6h-12.8v-1.6c0-1.768 2.864-3.2 6.4-3.2z"></path>
</symbol>
<symbol id="icon-eye" viewBox="0 0 32 32">
<path stroke-linejoin="round" stroke-linecap="butt" stroke-miterlimit="4" stroke-width="3.2" d="M16 5.333c9.334 0 14.667 10.667 14.667 10.667s-5.334 10.667-14.667 10.667c-9.333 0-14.666-10.667-14.666-10.667s5.334-10.667 14.666-10.667z"></path>
<path stroke-linejoin="round" stroke-linecap="butt" stroke-miterlimit="4" stroke-width="3.2" d="M16 20c-2.209 0-4-1.791-4-4s1.791-4 4-4c2.209 0 4 1.791 4 4s-1.791 4-4 4z"></path>
</symbol>
<symbol id="icon--RadioButton" viewBox="0 0 32 32">
<path fill="#f4c550" style="fill: var(--color3, #f4c550)" d="M16 9.333c3.682 0 6.667 2.985 6.667 6.667s-2.985 6.667-6.667 6.667c-3.682 0-6.667-2.985-6.667-6.667s2.985-6.667 6.667-6.667z"></path>
<path fill="none" stroke="#f4c550" style="stroke: var(--color3, #f4c550)" stroke-linejoin="miter" stroke-linecap="butt" stroke-miterlimit="4" stroke-width="2.6667" d="M10.667 4h10.667c3.682 0 6.667 2.985 6.667 6.667v10.667c0 3.682-2.985 6.667-6.667 6.667h-10.667c-3.682 0-6.667-2.985-6.667-6.667v-10.667c0-3.682 2.985-6.667 6.667-6.667z"></path>
</symbol>
</defs>
</svg>
